<svg width="16" height="14" viewBox="0 0 16 14" fill="none" xmlns="http://www.w3.org/2000/svg">
<path d="M13.9998 7.28271V6.33337C13.9998 4.74208 13.3677 3.21595 12.2424 2.09073C11.1172 0.965515 9.5911 0.333374 7.9998 0.333374C6.40851 0.333374 4.88238 0.965515 3.75716 2.09073C2.63195 3.21595 1.9998 4.74208 1.9998 6.33337V7.28271C1.30058 7.5906 0.728338 8.12934 0.378885 8.80875C0.0294327 9.48816 -0.0760217 10.267 0.080176 11.0149C0.236374 11.7627 0.644743 12.4343 1.23692 12.917C1.82909 13.3998 2.56913 13.6644 3.33314 13.6667C3.68676 13.6667 4.0259 13.5262 4.27595 13.2762C4.526 13.0261 4.66647 12.687 4.66647 12.3334V8.33337C4.66647 7.97975 4.526 7.64061 4.27595 7.39057C4.0259 7.14052 3.68676 7.00004 3.33314 7.00004V6.33337C3.33314 5.0957 3.8248 3.90871 4.69997 3.03354C5.57514 2.15837 6.76213 1.66671 7.9998 1.66671C9.23748 1.66671 10.4245 2.15837 11.2996 3.03354C12.1748 3.90871 12.6665 5.0957 12.6665 6.33337V7.00004C12.3128 7.00004 11.9737 7.14052 11.7237 7.39057C11.4736 7.64061 11.3331 7.97975 11.3331 8.33337V12.3334H9.33314C9.15633 12.3334 8.98676 12.4036 8.86173 12.5286C8.73671 12.6537 8.66647 12.8232 8.66647 13C8.66647 13.1769 8.73671 13.3464 8.86173 13.4714C8.98676 13.5965 9.15633 13.6667 9.33314 13.6667H12.6665C13.4305 13.6644 14.1705 13.3998 14.7627 12.917C15.3549 12.4343 15.7632 11.7627 15.9194 11.0149C16.0756 10.267 15.9702 9.48816 15.6207 8.80875C15.2713 8.12934 14.699 7.5906 13.9998 7.28271ZM3.33314 12.3334C2.8027 12.3334 2.294 12.1227 1.91892 11.7476C1.54385 11.3725 1.33314 10.8638 1.33314 10.3334C1.33314 9.80294 1.54385 9.29423 1.91892 8.91916C2.294 8.54409 2.8027 8.33337 3.33314 8.33337V12.3334ZM12.6665 12.3334V8.33337C13.1969 8.33337 13.7056 8.54409 14.0807 8.91916C14.4558 9.29423 14.6665 9.80294 14.6665 10.3334C14.6665 10.8638 14.4558 11.3725 14.0807 11.7476C13.7056 12.1227 13.1969 12.3334 12.6665 12.3334Z" fill="white"/>
</svg>
