<svg width="14" height="15" viewBox="0 0 14 15" fill="none" xmlns="http://www.w3.org/2000/svg">
<g clip-path="url(#clip0_2169_1267)">
<path d="M12.2503 3.25643H10.442C10.3066 2.59809 9.94839 2.00655 9.42772 1.58151C8.90706 1.15648 8.25578 0.923944 7.58366 0.923096L6.41699 0.923096C5.74487 0.923944 5.0936 1.15648 4.57293 1.58151C4.05226 2.00655 3.69405 2.59809 3.55866 3.25643H1.75033C1.59562 3.25643 1.44724 3.31789 1.33785 3.42728C1.22845 3.53668 1.16699 3.68505 1.16699 3.83976C1.16699 3.99447 1.22845 4.14284 1.33785 4.25224C1.44724 4.36164 1.59562 4.4231 1.75033 4.4231H2.33366V12.0064C2.33459 12.7797 2.64217 13.521 3.18895 14.0678C3.73573 14.6146 4.47706 14.9222 5.25033 14.9231H8.75033C9.52359 14.9222 10.2649 14.6146 10.8117 14.0678C11.3585 13.521 11.6661 12.7797 11.667 12.0064V4.4231H12.2503C12.405 4.4231 12.5534 4.36164 12.6628 4.25224C12.7722 4.14284 12.8337 3.99447 12.8337 3.83976C12.8337 3.68505 12.7722 3.53668 12.6628 3.42728C12.5534 3.31789 12.405 3.25643 12.2503 3.25643ZM6.41699 2.08976H7.58366C7.94549 2.0902 8.29832 2.20256 8.59377 2.41144C8.88922 2.62031 9.11282 2.91547 9.23391 3.25643H4.76674C4.88783 2.91547 5.11143 2.62031 5.40688 2.41144C5.70234 2.20256 6.05517 2.0902 6.41699 2.08976ZM10.5003 12.0064C10.5003 12.4706 10.316 12.9157 9.98776 13.2439C9.65957 13.5721 9.21445 13.7564 8.75033 13.7564H5.25033C4.7862 13.7564 4.34108 13.5721 4.01289 13.2439C3.6847 12.9157 3.50033 12.4706 3.50033 12.0064V4.4231H10.5003V12.0064Z" fill="#D50055"/>
<path d="M5.83333 11.423C5.98804 11.423 6.13642 11.3616 6.24581 11.2522C6.35521 11.1428 6.41667 10.9944 6.41667 10.8397V7.33968C6.41667 7.18497 6.35521 7.0366 6.24581 6.9272C6.13642 6.81781 5.98804 6.75635 5.83333 6.75635C5.67862 6.75635 5.53025 6.81781 5.42085 6.9272C5.31146 7.0366 5.25 7.18497 5.25 7.33968V10.8397C5.25 10.9944 5.31146 11.1428 5.42085 11.2522C5.53025 11.3616 5.67862 11.423 5.83333 11.423Z" fill="#D50055"/>
<path d="M8.16634 11.423C8.32105 11.423 8.46942 11.3616 8.57882 11.2522C8.68822 11.1428 8.74967 10.9944 8.74967 10.8397V7.33968C8.74967 7.18497 8.68822 7.0366 8.57882 6.9272C8.46942 6.81781 8.32105 6.75635 8.16634 6.75635C8.01163 6.75635 7.86326 6.81781 7.75386 6.9272C7.64447 7.0366 7.58301 7.18497 7.58301 7.33968V10.8397C7.58301 10.9944 7.64447 11.1428 7.75386 11.2522C7.86326 11.3616 8.01163 11.423 8.16634 11.423Z" fill="#D50055"/>
</g>
<defs>
<clipPath id="clip0_2169_1267">
<rect width="14" height="14" fill="white" transform="translate(0 0.923096)"/>
</clipPath>
</defs>
</svg>
