<svg width="16" height="16" viewBox="0 0 16 16" fill="none" xmlns="http://www.w3.org/2000/svg">
<path d="M7.93633 10.6666C8.48833 10.6666 8.93633 11.1146 8.93633 11.6666C8.93633 12.2186 8.48833 12.6666 7.93633 12.6666C7.38433 12.6666 6.93633 12.2186 6.93633 11.6666C6.93633 11.1146 7.38433 10.6666 7.93633 10.6666ZM8.603 9.33327C8.603 8.95927 8.875 8.51661 9.22167 8.32527C10.2217 7.77461 10.7597 6.64327 10.561 5.50994C10.3723 4.43461 9.48967 3.55127 8.41367 3.36261C7.62567 3.22661 6.827 3.43727 6.221 3.94527C5.61633 4.45394 5.269 5.19794 5.269 5.98727C5.269 6.35594 5.56767 6.65394 5.93567 6.65394C6.30367 6.65394 6.60233 6.35594 6.60233 5.98727C6.60233 5.59261 6.77567 5.22061 7.07833 4.96594C7.38567 4.70861 7.77967 4.60461 8.183 4.67594C8.70767 4.76794 9.155 5.21594 9.247 5.73994C9.349 6.32061 9.08633 6.87661 8.57767 7.15661C7.807 7.58127 7.269 8.47594 7.269 9.33261C7.269 9.70127 7.56767 9.99927 7.93567 9.99927C8.30367 9.99927 8.60233 9.70127 8.60233 9.33261L8.603 9.33327ZM16.0003 12.6666V8.22661C16.0003 3.90727 12.731 0.302606 8.55767 0.0186063C6.241 -0.134727 3.97433 0.710606 2.33967 2.34727C0.705 3.98461 -0.140333 6.25194 0.0203332 8.56927C0.313667 12.8053 4.055 15.9999 8.723 15.9999H12.6677C14.5057 15.9999 16.0003 14.5046 16.0003 12.6666ZM8.46767 1.34927C11.9443 1.58527 14.667 4.60594 14.667 8.22594V12.6659C14.667 13.7686 13.7697 14.6659 12.667 14.6659H8.72233C4.699 14.6659 1.59833 12.0633 1.34967 8.47661C1.21567 6.54394 1.91967 4.65327 3.28233 3.28927C4.537 2.03261 6.239 1.33327 8.01033 1.33327C8.16233 1.33327 8.315 1.33861 8.467 1.34861L8.46767 1.34927Z" fill="white"/>
</svg>
