<svg width="16" height="16" viewBox="0 0 16 16" fill="none" xmlns="http://www.w3.org/2000/svg">
<g clip-path="url(#clip0_2193_10313)">
<path d="M11.667 1.27795C10.9163 1.28963 10.1819 1.49919 9.53814 1.88547C8.89434 2.27175 8.36387 2.82107 8.0003 3.47795C7.63672 2.82107 7.10625 2.27175 6.46246 1.88547C5.81866 1.49919 5.08433 1.28963 4.33363 1.27795C3.13692 1.32995 2.00944 1.85346 1.19749 2.73411C0.385537 3.61476 -0.0448693 4.78097 0.000297715 5.97795C0.000297715 9.00929 3.19096 12.32 5.86696 14.5646C6.46444 15.0667 7.21987 15.342 8.0003 15.342C8.78073 15.342 9.53615 15.0667 10.1336 14.5646C12.8096 12.32 16.0003 9.00929 16.0003 5.97795C16.0455 4.78097 15.6151 3.61476 14.8031 2.73411C13.9912 1.85346 12.8637 1.32995 11.667 1.27795ZM9.27696 13.5446C8.91962 13.8455 8.46747 14.0106 8.0003 14.0106C7.53313 14.0106 7.08098 13.8455 6.72363 13.5446C3.2983 10.6706 1.33363 7.91329 1.33363 5.97795C1.28806 5.13443 1.57788 4.30711 2.13987 3.67642C2.70187 3.04573 3.49045 2.66285 4.33363 2.61129C5.17681 2.66285 5.96539 3.04573 6.52739 3.67642C7.08939 4.30711 7.3792 5.13443 7.33363 5.97795C7.33363 6.15477 7.40387 6.32433 7.52889 6.44936C7.65392 6.57438 7.82349 6.64462 8.0003 6.64462C8.17711 6.64462 8.34668 6.57438 8.4717 6.44936C8.59673 6.32433 8.66696 6.15477 8.66696 5.97795C8.62139 5.13443 8.91121 4.30711 9.47321 3.67642C10.0352 3.04573 10.8238 2.66285 11.667 2.61129C12.5101 2.66285 13.2987 3.04573 13.8607 3.67642C14.4227 4.30711 14.7125 5.13443 14.667 5.97795C14.667 7.91329 12.7023 10.6706 9.27696 13.542V13.5446Z" fill="white"/>
</g>
<defs>
<clipPath id="clip0_2193_10313">
<rect width="16" height="16" fill="white"/>
</clipPath>
</defs>
</svg>
