<svg width="16" height="16" viewBox="0 0 16 16" fill="none" xmlns="http://www.w3.org/2000/svg">
<g clip-path="url(#clip0_2193_10283)">
<path d="M12.6664 2.66667H12.5991C12.2891 1.14733 10.9431 0 9.33306 0H3.33306C1.49506 0 -0.000275593 1.49533 -0.000275593 3.33333V11.9033C-0.0362756 13.012 1.32239 13.74 2.22572 13.0947L4.20372 11.776C4.66372 13.0673 5.88573 14 7.33306 14H11.1311L13.7731 15.7613C14.6771 16.406 16.0351 15.6787 15.9997 14.57V6C15.9997 4.162 14.5044 2.66667 12.6664 2.66667ZM1.48572 11.9853C1.45239 12.038 1.30706 11.9593 1.33306 11.9033V3.33333C1.33306 2.23067 2.23039 1.33333 3.33306 1.33333H9.33306C10.4357 1.33333 11.3331 2.23067 11.3331 3.33333V8C11.3331 9.10267 10.4357 10 9.33306 10H4.66639C4.53439 9.99933 4.41106 10.052 4.29639 10.112L1.48572 11.9853ZM14.6664 14.57C14.6924 14.6273 14.5444 14.7053 14.5131 14.652L11.7031 12.7787C11.5937 12.706 11.4651 12.6667 11.3331 12.6667H7.33306C6.46506 12.6667 5.73172 12.1073 5.45572 11.3333H9.33306C11.1711 11.3333 12.6664 9.838 12.6664 8V4C13.7691 4 14.6664 4.89733 14.6664 6V14.57ZM5.13306 8H3.99972C3.63172 8 3.33306 7.70133 3.33306 7.33333V4C3.33306 3.632 3.63172 3.33333 3.99972 3.33333H5.13306C5.42772 3.33333 5.66639 3.572 5.66639 3.86667C5.66639 4.16133 5.42772 4.4 5.13306 4.4H4.39906V5.134H5.13306C5.42772 5.134 5.66639 5.37267 5.66639 5.66733C5.66639 5.962 5.42772 6.20067 5.13306 6.20067H4.39906V6.93467H5.13306C5.42772 6.93467 5.66639 7.17333 5.66639 7.468C5.66639 7.76267 5.42772 8.00133 5.13306 8.00133V8ZM6.33306 7.502V3.94267C6.33306 3.606 6.60572 3.33333 6.94239 3.33333C7.17839 3.33333 7.39239 3.46933 7.49372 3.68267L8.44906 5.70333V3.83133C8.44906 3.55667 8.67172 3.33333 8.94706 3.33333C9.22239 3.33333 9.44506 3.556 9.44506 3.83133V7.39067C9.44506 7.72733 9.17239 8 8.83572 8C8.60039 8 8.38573 7.864 8.28506 7.65133L7.33039 5.63467V7.502C7.33039 7.77667 7.10772 8 6.83239 8C6.55706 8 6.33439 7.77733 6.33439 7.502H6.33306Z" fill="white"/>
</g>
<defs>
<clipPath id="clip0_2193_10283">
<rect width="16" height="16" fill="white"/>
</clipPath>
</defs>
</svg>
