<svg width="16" height="16" viewBox="0 0 16 16" fill="none" xmlns="http://www.w3.org/2000/svg">
<path d="M12.6663 5.616V4.66667C12.6663 3.42899 12.1747 2.242 11.2995 1.36684C10.4243 0.491665 9.23735 0 7.99967 0C6.762 0 5.57501 0.491665 4.69984 1.36684C3.82467 2.242 3.33301 3.42899 3.33301 4.66667V5.616C2.73925 5.87514 2.23387 6.30168 1.87867 6.84347C1.52348 7.38527 1.33386 8.01882 1.33301 8.66667V12.6667C1.33407 13.5504 1.6856 14.3976 2.31049 15.0225C2.93538 15.6474 3.78261 15.9989 4.66634 16H11.333C12.2167 15.9989 13.064 15.6474 13.6889 15.0225C14.3138 14.3976 14.6653 13.5504 14.6663 12.6667V8.66667C14.6655 8.01882 14.4759 7.38527 14.1207 6.84347C13.7655 6.30168 13.2601 5.87514 12.6663 5.616ZM4.66634 4.66667C4.66634 3.78261 5.01753 2.93477 5.64265 2.30964C6.26777 1.68452 7.11562 1.33333 7.99967 1.33333C8.88373 1.33333 9.73158 1.68452 10.3567 2.30964C10.9818 2.93477 11.333 3.78261 11.333 4.66667V5.33333H4.66634V4.66667ZM13.333 12.6667C13.333 13.1971 13.1223 13.7058 12.7472 14.0809C12.3721 14.456 11.8634 14.6667 11.333 14.6667H4.66634C4.13591 14.6667 3.6272 14.456 3.25213 14.0809C2.87705 13.7058 2.66634 13.1971 2.66634 12.6667V8.66667C2.66634 8.13623 2.87705 7.62753 3.25213 7.25245C3.6272 6.87738 4.13591 6.66667 4.66634 6.66667H11.333C11.8634 6.66667 12.3721 6.87738 12.7472 7.25245C13.1223 7.62753 13.333 8.13623 13.333 8.66667V12.6667Z" fill="white"/>
<path d="M7.99967 9.33337C7.82286 9.33337 7.65329 9.40361 7.52827 9.52864C7.40325 9.65366 7.33301 9.82323 7.33301 10V11.3334C7.33301 11.5102 7.40325 11.6798 7.52827 11.8048C7.65329 11.9298 7.82286 12 7.99967 12C8.17649 12 8.34605 11.9298 8.47108 11.8048C8.5961 11.6798 8.66634 11.5102 8.66634 11.3334V10C8.66634 9.82323 8.5961 9.65366 8.47108 9.52864C8.34605 9.40361 8.17649 9.33337 7.99967 9.33337Z" fill="white"/>
</svg>
