<svg width="16" height="16" viewBox="0 0 16 16" fill="none" xmlns="http://www.w3.org/2000/svg">
<g clip-path="url(#clip0_2193_10417)">
<path d="M15.2195 6.11469L12.6335 3.52869C12.5078 3.40726 12.3394 3.34006 12.1646 3.34158C11.9898 3.3431 11.8226 3.41321 11.699 3.53682C11.5754 3.66042 11.5052 3.82763 11.5037 4.00243C11.5022 4.17722 11.5694 4.34563 11.6908 4.47136L14.2768 7.05736C14.3537 7.13571 14.4208 7.223 14.4768 7.31736C14.4668 7.31736 14.4588 7.31203 14.4488 7.31203L3.99284 7.33336C3.81603 7.33336 3.64646 7.4036 3.52143 7.52862C3.39641 7.65365 3.32617 7.82322 3.32617 8.00003C3.32617 8.17684 3.39641 8.34641 3.52143 8.47143C3.64646 8.59646 3.81603 8.66669 3.99284 8.66669L14.4448 8.64536C14.4635 8.64536 14.4788 8.63603 14.4968 8.63469C14.4377 8.74747 14.3627 8.85119 14.2742 8.94269L11.6882 11.5287C11.6245 11.5902 11.5737 11.6638 11.5388 11.7451C11.5038 11.8264 11.4854 11.9139 11.4847 12.0024C11.4839 12.0909 11.5008 12.1787 11.5343 12.2607C11.5678 12.3426 11.6173 12.417 11.6799 12.4796C11.7425 12.5422 11.8169 12.5917 11.8989 12.6252C11.9808 12.6588 12.0686 12.6756 12.1571 12.6749C12.2456 12.6741 12.3331 12.6557 12.4144 12.6208C12.4958 12.5858 12.5693 12.535 12.6308 12.4714L15.2168 9.88536C15.7168 9.38529 15.9976 8.70713 15.9976 8.00003C15.9976 7.29292 15.7168 6.61477 15.2168 6.11469H15.2195Z" fill="white"/>
<path d="M4.66667 14.6667H3.33333C2.8029 14.6667 2.29419 14.456 1.91912 14.0809C1.54405 13.7058 1.33333 13.1971 1.33333 12.6667V3.33333C1.33333 2.8029 1.54405 2.29419 1.91912 1.91912C2.29419 1.54405 2.8029 1.33333 3.33333 1.33333H4.66667C4.84348 1.33333 5.01305 1.2631 5.13807 1.13807C5.2631 1.01305 5.33333 0.843478 5.33333 0.666667C5.33333 0.489856 5.2631 0.320286 5.13807 0.195262C5.01305 0.0702379 4.84348 0 4.66667 0L3.33333 0C2.4496 0.00105857 1.60237 0.352588 0.97748 0.97748C0.352588 1.60237 0.00105857 2.4496 0 3.33333L0 12.6667C0.00105857 13.5504 0.352588 14.3976 0.97748 15.0225C1.60237 15.6474 2.4496 15.9989 3.33333 16H4.66667C4.84348 16 5.01305 15.9298 5.13807 15.8047C5.2631 15.6797 5.33333 15.5101 5.33333 15.3333C5.33333 15.1565 5.2631 14.987 5.13807 14.8619C5.01305 14.7369 4.84348 14.6667 4.66667 14.6667Z" fill="white"/>
</g>
<defs>
<clipPath id="clip0_2193_10417">
<rect width="16" height="16" fill="white"/>
</clipPath>
</defs>
</svg>
