<svg width="16" height="16" viewBox="0 0 16 16" fill="none" xmlns="http://www.w3.org/2000/svg">
<g clip-path="url(#clip0_2193_10443)">
<path d="M12.6667 13.3333H3.33333C2.4496 13.3322 1.60237 12.9807 0.97748 12.3558C0.352588 11.7309 0.00105857 10.8837 0 9.99996L0 5.99996C0.00105857 5.11623 0.352588 4.269 0.97748 3.64411C1.60237 3.01921 2.4496 2.66768 3.33333 2.66663H12.6667C13.5504 2.66768 14.3976 3.01921 15.0225 3.64411C15.6474 4.269 15.9989 5.11623 16 5.99996V9.99996C15.9989 10.8837 15.6474 11.7309 15.0225 12.3558C14.3976 12.9807 13.5504 13.3322 12.6667 13.3333ZM3.33333 3.99996C2.8029 3.99996 2.29419 4.21067 1.91912 4.58575C1.54405 4.96082 1.33333 5.46953 1.33333 5.99996V9.99996C1.33333 10.5304 1.54405 11.0391 1.91912 11.4142C2.29419 11.7892 2.8029 12 3.33333 12H12.6667C13.1971 12 13.7058 11.7892 14.0809 11.4142C14.456 11.0391 14.6667 10.5304 14.6667 9.99996V5.99996C14.6667 5.46953 14.456 4.96082 14.0809 4.58575C13.7058 4.21067 13.1971 3.99996 12.6667 3.99996H3.33333ZM8 10.6666C7.47258 10.6666 6.95701 10.5102 6.51848 10.2172C6.07995 9.92419 5.73815 9.50772 5.53632 9.02045C5.33449 8.53318 5.28168 7.997 5.38457 7.47972C5.48747 6.96244 5.74144 6.48728 6.11438 6.11434C6.48732 5.7414 6.96248 5.48743 7.47976 5.38453C7.99704 5.28164 8.53322 5.33445 9.02049 5.53628C9.50776 5.73811 9.92424 6.07991 10.2173 6.51844C10.5103 6.95697 10.6667 7.47254 10.6667 7.99996C10.6667 8.7072 10.3857 9.38548 9.88562 9.88558C9.38552 10.3857 8.70724 10.6666 8 10.6666ZM8 6.66663C7.73629 6.66663 7.47851 6.74482 7.25924 6.89133C7.03997 7.03784 6.86908 7.24608 6.76816 7.48972C6.66724 7.73335 6.64084 8.00144 6.69229 8.26008C6.74373 8.51872 6.87072 8.7563 7.05719 8.94277C7.24366 9.12924 7.48124 9.25623 7.73988 9.30767C7.99852 9.35912 8.26661 9.33272 8.51024 9.2318C8.75388 9.13088 8.96212 8.95999 9.10863 8.74072C9.25513 8.52145 9.33333 8.26367 9.33333 7.99996C9.33333 7.64634 9.19286 7.3072 8.94281 7.05715C8.69276 6.8071 8.35362 6.66663 8 6.66663ZM3.33333 5.33329C3.20148 5.33329 3.07259 5.37239 2.96295 5.44565C2.85332 5.5189 2.76787 5.62302 2.71741 5.74484C2.66696 5.86665 2.65375 6.0007 2.67948 6.13002C2.7052 6.25934 2.76869 6.37813 2.86193 6.47136C2.95516 6.5646 3.07395 6.62809 3.20327 6.65382C3.33259 6.67954 3.46664 6.66634 3.58846 6.61588C3.71027 6.56542 3.81439 6.47997 3.88765 6.37034C3.9609 6.26071 4 6.13181 4 5.99996C4 5.82315 3.92976 5.65358 3.80474 5.52855C3.67971 5.40353 3.51014 5.33329 3.33333 5.33329ZM12 5.99996C12 6.13181 12.0391 6.26071 12.1124 6.37034C12.1856 6.47997 12.2897 6.56542 12.4115 6.61588C12.5334 6.66634 12.6674 6.67954 12.7967 6.65382C12.926 6.62809 13.0448 6.5646 13.1381 6.47136C13.2313 6.37813 13.2948 6.25934 13.3205 6.13002C13.3462 6.0007 13.333 5.86665 13.2826 5.74484C13.2321 5.62302 13.1467 5.5189 13.037 5.44565C12.9274 5.37239 12.7985 5.33329 12.6667 5.33329C12.4899 5.33329 12.3203 5.40353 12.1953 5.52855C12.0702 5.65358 12 5.82315 12 5.99996ZM3.33333 9.33329C3.20148 9.33329 3.07259 9.37239 2.96295 9.44565C2.85332 9.5189 2.76787 9.62302 2.71741 9.74484C2.66696 9.86665 2.65375 10.0007 2.67948 10.13C2.7052 10.2593 2.76869 10.3781 2.86193 10.4714C2.95516 10.5646 3.07395 10.6281 3.20327 10.6538C3.33259 10.6795 3.46664 10.6663 3.58846 10.6159C3.71027 10.5654 3.81439 10.48 3.88765 10.3703C3.9609 10.2607 4 10.1318 4 9.99996C4 9.82315 3.92976 9.65358 3.80474 9.52855C3.67971 9.40353 3.51014 9.33329 3.33333 9.33329ZM12 9.99996C12 10.1318 12.0391 10.2607 12.1124 10.3703C12.1856 10.48 12.2897 10.5654 12.4115 10.6159C12.5334 10.6663 12.6674 10.6795 12.7967 10.6538C12.926 10.6281 13.0448 10.5646 13.1381 10.4714C13.2313 10.3781 13.2948 10.2593 13.3205 10.13C13.3462 10.0007 13.333 9.86665 13.2826 9.74484C13.2321 9.62302 13.1467 9.5189 13.037 9.44565C12.9274 9.37239 12.7985 9.33329 12.6667 9.33329C12.4899 9.33329 12.3203 9.40353 12.1953 9.52855C12.0702 9.65358 12 9.82315 12 9.99996Z" fill="white"/>
</g>
<defs>
<clipPath id="clip0_2193_10443">
<rect width="16" height="16" fill="white"/>
</clipPath>
</defs>
</svg>
