<svg width="80" height="76" viewBox="0 0 80 76" fill="none" xmlns="http://www.w3.org/2000/svg">
<path d="M52.2157 27.7435L33.7193 10.9791L27.2837 5.15533L26.084 4.06684C21.4361 -0.128214 15.0005 -1.16109 9.28791 1.38137C3.55149 3.89999 -7.62939e-06 9.35833 -7.62939e-06 15.6271V60.2551C-7.62939e-06 66.5239 3.55149 71.9822 9.28791 74.5247C11.3616 75.4463 13.5386 75.8992 15.6679 75.8992C19.4418 75.8992 23.1364 74.5008 26.0761 71.8154L27.2758 70.7269L33.6796 64.9031L52.1998 48.1387C55.0839 45.5327 56.7365 41.8144 56.7365 37.953C56.7365 34.0917 55.0839 30.3415 52.1998 27.7435H52.2157ZM46.3919 41.7032L31.9555 54.7968L23.4462 62.5195L20.2602 65.4036C18.1627 67.2787 15.3898 67.7236 12.8156 66.5795C10.2095 65.4592 8.67613 63.0836 8.67613 60.2551V15.6271C8.67613 12.7986 10.2175 10.4468 12.8156 9.30271C13.7372 8.88162 14.7224 8.69093 15.6679 8.69093C17.3205 8.69093 18.9413 9.30271 20.2602 10.5104L23.4462 13.3945L31.9555 21.1172L46.3919 34.187C47.4804 35.1643 48.0683 36.507 48.0683 37.961C48.0683 39.4149 47.4804 40.7338 46.3919 41.7111V41.7032Z" fill="#D50055"/>
<path d="M75.4949 27.7434L49.3632 4.06679C44.7153 -0.128263 38.2797 -1.16114 32.5433 1.35749C30.4696 2.27913 28.6819 3.59803 27.2836 5.16323C25.2099 7.4276 23.8672 10.2879 23.454 13.3865L31.9633 21.1092V15.627C31.9633 13.8076 32.6068 12.2106 33.7271 10.9791C34.3707 10.2799 35.1572 9.72376 36.0789 9.30266C37.0323 8.88157 37.9778 8.69089 38.9312 8.69089C40.6076 8.69089 42.2046 9.30266 43.5235 10.5103L69.687 34.187C70.7516 35.1642 71.3396 36.507 71.3396 37.9609C71.3396 39.4149 70.7516 40.7338 69.687 41.711L43.5235 65.4115C41.4498 67.2866 38.6531 67.7315 36.0789 66.5874C35.1255 66.1663 34.3468 65.6101 33.7033 64.911C32.583 63.6795 31.9712 62.0587 31.9712 60.263V54.8047L23.4619 62.5274C23.883 65.634 25.2258 68.4625 27.2915 70.7268C28.6899 72.3238 30.4775 73.6109 32.5512 74.5326C34.6488 75.4542 36.8019 75.9071 38.955 75.9071C42.7052 75.9071 46.3997 74.5088 49.3632 71.8233L75.4949 48.1466C78.3472 45.5406 79.9998 41.8223 79.9998 37.9609C79.9998 34.0996 78.3472 30.3494 75.4949 27.7514V27.7434Z" fill="#D50055"/>
</svg>
