<svg width="60" height="60" viewBox="0 0 60 60" fill="none" xmlns="http://www.w3.org/2000/svg">
<g clip-path="url(#clip0_2153_9956)">
<path d="M55.7976 11.0775L21.2501 45.6225C21.0178 45.8557 20.7418 46.0407 20.4378 46.167C20.1338 46.2933 19.8079 46.3582 19.4788 46.3582C19.1497 46.3582 18.8238 46.2933 18.5198 46.167C18.2159 46.0407 17.9398 45.8557 17.7076 45.6225L4.34756 32.25C4.11528 32.0168 3.83925 31.8318 3.53529 31.7055C3.23134 31.5793 2.90544 31.5143 2.57631 31.5143C2.24717 31.5143 1.92128 31.5793 1.61732 31.7055C1.31337 31.8318 1.03733 32.0168 0.805059 32.25C0.571867 32.4823 0.386836 32.7583 0.260582 33.0623C0.134328 33.3662 0.0693359 33.6921 0.0693359 34.0213C0.0693359 34.3504 0.134328 34.6763 0.260582 34.9803C0.386836 35.2842 0.571867 35.5602 0.805059 35.7925L14.1701 49.155C15.5799 50.5623 17.4906 51.3526 19.4826 51.3526C21.4746 51.3526 23.3852 50.5623 24.7951 49.155L59.3401 14.6175C59.5729 14.3853 59.7576 14.1094 59.8836 13.8057C60.0097 13.502 60.0745 13.1764 60.0745 12.8475C60.0745 12.5187 60.0097 12.1931 59.8836 11.8894C59.7576 11.5856 59.5729 11.3097 59.3401 11.0775C59.1078 10.8443 58.8318 10.6593 58.5278 10.533C58.2238 10.4068 57.8979 10.3418 57.5688 10.3418C57.2397 10.3418 56.9138 10.4068 56.6098 10.533C56.3059 10.6593 56.0298 10.8443 55.7976 11.0775Z" fill="#D50055"/>
</g>
<defs>
<clipPath id="clip0_2153_9956">
<rect width="60" height="60" fill="white"/>
</clipPath>
</defs>
</svg>
