<svg width="15" height="15" viewBox="0 0 15 15" fill="none" xmlns="http://www.w3.org/2000/svg">
<g clip-path="url(#clip0_2203_12111)">
<path d="M12.6816 2.56345L11.3492 1.18737C11.1856 1.01935 10.9901 0.885692 10.7741 0.794238C10.5581 0.702783 10.3261 0.655372 10.0916 0.654785H7.34115C6.66903 0.655634 6.01775 0.888171 5.49708 1.3132C4.97642 1.73824 4.6182 2.32978 4.48281 2.98812H4.42448C3.65122 2.98904 2.90989 3.29663 2.36311 3.84341C1.81633 4.39019 1.50874 5.13152 1.50781 5.90479V11.7381C1.50874 12.5114 1.81633 13.2527 2.36311 13.7995C2.90989 14.3463 3.65122 14.6539 4.42448 14.6548H7.92448C8.69774 14.6539 9.43907 14.3463 9.98585 13.7995C10.5326 13.2527 10.8402 12.5114 10.8411 11.7381V11.6798C11.4995 11.5444 12.091 11.1862 12.5161 10.6655C12.9411 10.1448 13.1736 9.49357 13.1745 8.82145V3.78145C13.1754 3.3267 12.9985 2.8896 12.6816 2.56345ZM7.92448 13.4881H4.42448C3.96035 13.4881 3.51523 13.3037 3.18704 12.9756C2.85885 12.6474 2.67448 12.2022 2.67448 11.7381V5.90479C2.67448 5.44066 2.85885 4.99554 3.18704 4.66735C3.51523 4.33916 3.96035 4.15479 4.42448 4.15479V8.82145C4.42541 9.59472 4.73299 10.336 5.27977 10.8828C5.82655 11.4296 6.56788 11.7372 7.34115 11.7381H9.67448C9.67448 12.2022 9.49011 12.6474 9.16192 12.9756C8.83373 13.3037 8.38861 13.4881 7.92448 13.4881ZM10.2578 10.5715H7.34115C6.87702 10.5715 6.4319 10.3871 6.10371 10.0589C5.77552 9.7307 5.59115 9.28558 5.59115 8.82145V3.57145C5.59115 3.10732 5.77552 2.6622 6.10371 2.33402C6.4319 2.00583 6.87702 1.82145 7.34115 1.82145H9.67448V2.98812C9.67448 3.29754 9.7974 3.59428 10.0162 3.81308C10.235 4.03187 10.5317 4.15478 10.8411 4.15479H12.0078V8.82145C12.0078 9.28558 11.8234 9.7307 11.4953 10.0589C11.1671 10.3871 10.7219 10.5715 10.2578 10.5715Z" fill="white" fill-opacity="0.5"/>
</g>
<defs>
<clipPath id="clip0_2203_12111">
<rect width="14" height="14" fill="white" transform="translate(0.34082 0.654785)"/>
</clipPath>
</defs>
</svg>
