<svg width="117" height="175" viewBox="0 0 117 175" fill="none" xmlns="http://www.w3.org/2000/svg">
<rect width="117" height="175" rx="6" fill="white"/>
<g clip-path="url(#clip0_3511_2)">
<path d="M66.75 73H49.25C47.593 73.002 46.0044 73.6611 44.8328 74.8328C43.6611 76.0044 43.002 77.593 43 79.25V96.75C43.002 98.407 43.6611 99.9956 44.8328 101.167C46.0044 102.339 47.593 102.998 49.25 103H66.75C68.407 102.998 69.9956 102.339 71.1672 101.167C72.3389 99.9956 72.998 98.407 73 96.75V79.25C72.998 77.593 72.3389 76.0044 71.1672 74.8328C69.9956 73.6611 68.407 73.002 66.75 73ZM68 86.75H70.5V89.25H68V86.75ZM68 84.25V81.75H70.5V84.25H68ZM65.5 86.75H50.5V75.5H65.5V86.75ZM48 89.25H45.5V86.75H48V89.25ZM48 84.25H45.5V81.75H48V84.25ZM45.5 91.75H48V94.25H45.5V91.75ZM50.5 89.25H65.5V100.5H50.5V89.25ZM68 91.75H70.5V94.25H68V91.75ZM70.5 79.25H68V75.73C68.7286 75.9876 69.3599 76.464 69.8074 77.0941C70.2549 77.7242 70.4968 78.4772 70.5 79.25ZM48 75.73V79.25H45.5C45.5032 78.4772 45.7451 77.7242 46.1926 77.0941C46.6401 76.464 47.2714 75.9876 48 75.73ZM45.5 96.75H48V100.27C47.2714 100.012 46.6401 99.536 46.1926 98.9059C45.7451 98.2758 45.5032 97.5228 45.5 96.75ZM68 100.27V96.75H70.5C70.4968 97.5228 70.2549 98.2758 69.8074 98.9059C69.3599 99.536 68.7286 100.012 68 100.27Z" fill="#A4A4A4"/>
</g>
<defs>
<clipPath id="clip0_3511_2">
<rect width="30" height="30" fill="white" transform="translate(43 73)"/>
</clipPath>
</defs>
</svg>
