<svg width="16" height="17" viewBox="0 0 16 17" fill="none" xmlns="http://www.w3.org/2000/svg">
<path d="M8 16.5986C6.41775 16.5986 4.87104 16.1294 3.55544 15.2504C2.23985 14.3713 1.21447 13.1219 0.608967 11.6601C0.00346629 10.1983 -0.15496 8.58976 0.153721 7.03791C0.462403 5.48607 1.22433 4.0606 2.34315 2.94178C3.46197 1.82296 4.88743 1.06104 6.43928 0.752354C7.99113 0.443672 9.59966 0.602099 11.0615 1.2076C12.5233 1.8131 13.7727 2.83848 14.6518 4.15407C15.5308 5.46967 16 7.01639 16 8.59864C15.9977 10.7197 15.1541 12.7532 13.6543 14.253C12.1545 15.7528 10.121 16.5963 8 16.5986ZM8 1.93197C6.68146 1.93197 5.39253 2.32296 4.2962 3.05551C3.19987 3.78805 2.34539 4.82924 1.84081 6.04741C1.33622 7.26559 1.2042 8.60603 1.46144 9.89924C1.71867 11.1924 2.35361 12.3803 3.28596 13.3127C4.21831 14.245 5.4062 14.88 6.6994 15.1372C7.99261 15.3944 9.33305 15.2624 10.5512 14.7578C11.7694 14.2533 12.8106 13.3988 13.5431 12.3024C14.2757 11.2061 14.6667 9.91718 14.6667 8.59864C14.6647 6.83112 13.9617 5.13656 12.7119 3.88673C11.4621 2.63691 9.76752 1.93391 8 1.93197ZM11.7773 11.096C11.9094 10.9784 11.9894 10.8132 11.9996 10.6366C12.0099 10.4601 11.9496 10.2867 11.832 10.1546C11.7144 10.0226 11.5492 9.9426 11.3727 9.93235C11.1961 9.9221 11.0227 9.98239 10.8907 10.1C10.0757 10.7862 9.06302 11.1944 8 11.2653C6.93761 11.1945 5.92548 10.7867 5.11067 10.1013C4.97877 9.98355 4.80549 9.92301 4.62896 9.93301C4.45242 9.94302 4.28709 10.0227 4.16934 10.1546C4.05158 10.2865 3.99105 10.4598 4.00105 10.6363C4.01105 10.8129 4.09077 10.9782 4.22267 11.096C5.28125 12.0003 6.60948 12.5287 8 12.5986C9.39053 12.5287 10.7188 12.0003 11.7773 11.096ZM4 7.2653C4 7.93197 4.59667 7.93197 5.33334 7.93197C6.07 7.93197 6.66667 7.93197 6.66667 7.2653C6.66667 6.91168 6.52619 6.57254 6.27615 6.32249C6.0261 6.07245 5.68696 5.93197 5.33334 5.93197C4.97972 5.93197 4.64058 6.07245 4.39053 6.32249C4.14048 6.57254 4 6.91168 4 7.2653ZM9.33334 7.2653C9.33334 7.93197 9.93 7.93197 10.6667 7.93197C11.4033 7.93197 12 7.93197 12 7.2653C12 6.91168 11.8595 6.57254 11.6095 6.32249C11.3594 6.07245 11.0203 5.93197 10.6667 5.93197C10.313 5.93197 9.97391 6.07245 9.72386 6.32249C9.47381 6.57254 9.33334 6.91168 9.33334 7.2653Z" fill="white"/>
</svg>
