<svg width="20" height="20" viewBox="0 0 20 20" fill="none" xmlns="http://www.w3.org/2000/svg">
<g clip-path="url(#clip0_2099_12645)">
<path d="M15 4.93341C15 3.13175 13.535 1.66675 11.7333 1.66675H3.26667C1.465 1.66675 0 3.13175 0 4.93341C0 5.71258 0.279167 6.46758 0.786667 7.05925L5 11.9751V15.0001C5 15.2626 5.12333 15.5092 5.33333 15.6667L8.66667 18.1667C8.81417 18.2767 8.99 18.3334 9.16667 18.3334C9.29333 18.3334 9.42167 18.3042 9.53917 18.2459C9.82167 18.1051 10 17.8159 10 17.5001V11.9751L14.2133 7.05925C14.7208 6.46758 15 5.71258 15 4.93341ZM12.9483 5.97508L8.53417 11.1251C8.405 11.2759 8.33333 11.4684 8.33333 11.6676V15.8342L6.66667 14.5842V11.6676C6.66667 11.4684 6.59583 11.2759 6.46583 11.1251L2.05167 5.97425C1.80333 5.68425 1.66667 5.31425 1.66667 4.93258C1.66667 4.05008 2.38417 3.33258 3.26667 3.33258H11.7333C12.6158 3.33258 13.3333 4.05008 13.3333 4.93258C13.3333 5.31425 13.1967 5.68508 12.9483 5.97508ZM20 16.6676C20 17.1276 19.6267 17.5009 19.1667 17.5009H12.5C12.04 17.5009 11.6667 17.1276 11.6667 16.6676C11.6667 16.2076 12.04 15.8342 12.5 15.8342H19.1667C19.6267 15.8342 20 16.2076 20 16.6676ZM20 13.3342C20 13.7942 19.6267 14.1676 19.1667 14.1676H12.5C12.04 14.1676 11.6667 13.7942 11.6667 13.3342C11.6667 12.8742 12.04 12.5009 12.5 12.5009H19.1667C19.6267 12.5009 20 12.8742 20 13.3342ZM15 9.16758H19.1667C19.6267 9.16758 20 9.54092 20 10.0009C20 10.4609 19.6267 10.8342 19.1667 10.8342H15C14.54 10.8342 14.1667 10.4609 14.1667 10.0009C14.1667 9.54092 14.54 9.16758 15 9.16758Z" fill="white"/>
</g>
<defs>
<clipPath id="clip0_2099_12645">
<rect width="20" height="20" fill="white"/>
</clipPath>
</defs>
</svg>
