<svg width="24" height="24" viewBox="0 0 24 24" fill="none" xmlns="http://www.w3.org/2000/svg">
<path d="M14 18.0001H10C8.897 18.0001 8 17.1031 8 16.0001V12.0001C8 10.8971 8.897 10.0001 10 10.0001H14C15.103 10.0001 16 10.8971 16 12.0001V16.0001C16 17.1031 15.103 18.0001 14 18.0001ZM10 12.0001V16.0001H14.002L14 12.0001H10ZM19 24.0001H5C2.243 24.0001 0 21.7571 0 19.0001V9.72411C0 8.05911 0.824 6.50911 2.204 5.57911L9.203 0.855106C10.902 -0.290895 13.098 -0.290895 14.797 0.855106L21.797 5.57911C23.176 6.50911 24 8.05811 24 9.72411V19.0001C24 21.7571 21.757 24.0001 19 24.0001ZM12 1.99711C11.416 1.99711 10.832 2.16911 10.322 2.51411L3.322 7.23711C2.494 7.79511 2 8.72411 2 9.72311V18.9991C2 20.6531 3.346 21.9991 5 21.9991H19C20.654 21.9991 22 20.6531 22 18.9991V9.72411C22 8.72511 21.506 7.79511 20.679 7.23811L13.678 2.51411C13.168 2.16911 12.584 1.99711 12 1.99711Z" fill="white"/>
</svg>
