<svg width="17" height="18" viewBox="0 0 17 18" fill="none" xmlns="http://www.w3.org/2000/svg">
<g clip-path="url(#clip0_2135_9206)">
<path d="M2.81348 5.81643C2.81348 5.07284 3.10887 4.35969 3.63467 3.83389C4.16048 3.30809 4.87362 3.0127 5.61721 3.0127H11.2247C11.9683 3.0127 12.6814 3.30809 13.2072 3.83389C13.733 4.35969 14.0284 5.07284 14.0284 5.81643V11.4239C14.0284 12.1675 13.733 12.8806 13.2072 13.4065C12.6814 13.9323 11.9683 14.2276 11.2247 14.2276H5.61721C4.87362 14.2276 4.16048 13.9323 3.63467 13.4065C3.10887 12.8806 2.81348 12.1675 2.81348 11.4239V5.81643Z" stroke="white" stroke-width="1.34346" stroke-linecap="round" stroke-linejoin="round"/>
<path d="M6.31934 8.62087C6.31934 9.17857 6.54088 9.71343 6.93523 10.1078C7.32958 10.5021 7.86444 10.7237 8.42214 10.7237C8.97984 10.7237 9.51469 10.5021 9.90905 10.1078C10.3034 9.71343 10.5249 9.17857 10.5249 8.62087C10.5249 8.06317 10.3034 7.52832 9.90905 7.13396C9.51469 6.73961 8.97984 6.51807 8.42214 6.51807C7.86444 6.51807 7.32958 6.73961 6.93523 7.13396C6.54088 7.52832 6.31934 8.06317 6.31934 8.62087Z" stroke="white" stroke-width="1.34346" stroke-linecap="round" stroke-linejoin="round"/>
<path d="M11.5752 5.4668V5.47364" stroke="white" stroke-width="1.34346" stroke-linecap="round" stroke-linejoin="round"/>
</g>
<defs>
<clipPath id="clip0_2135_9206">
<rect width="16.8224" height="16.8224" fill="white" transform="translate(0.00976562 0.209473)"/>
</clipPath>
</defs>
</svg>
