<svg width="31" height="30" viewBox="0 0 31 30" fill="none" xmlns="http://www.w3.org/2000/svg">
<path d="M15.5 18.75C17.5711 18.75 19.25 17.0711 19.25 15C19.25 12.9289 17.5711 11.25 15.5 11.25C13.4289 11.25 11.75 12.9289 11.75 15C11.75 17.0711 13.4289 18.75 15.5 18.75Z" fill="#D50055"/>
<path d="M11.1813 10.4931L9.45062 8.6875C7.78938 10.28 6.75 12.5169 6.75 15C6.75 17.4831 7.78938 19.72 9.45062 21.3125L11.1813 19.5069C9.99375 18.3681 9.25 16.7706 9.25 15C9.25 13.2294 9.99375 11.6312 11.1813 10.4931Z" fill="white"/>
<path d="M21.549 8.6875L19.8184 10.4931C21.0059 11.6319 21.7496 13.2294 21.7496 15C21.7496 16.7706 21.0059 18.3681 19.8184 19.5069L21.549 21.3125C23.2102 19.72 24.2496 17.4831 24.2496 15C24.2496 12.5169 23.2102 10.28 21.549 8.6875Z" fill="white"/>
<path d="M7.72563 6.88818L5.98875 5.07568C3.37812 7.57818 1.75 11.0982 1.75 15.0001C1.75 18.9019 3.37812 22.4219 5.98875 24.9244L7.72563 23.1119C5.58875 21.0632 4.25 18.1876 4.25 15.0001C4.25 11.8126 5.58875 8.93693 7.72563 6.88818Z" fill="white"/>
<path d="M25.0113 5.07568L23.2744 6.88818C25.4113 8.93693 26.75 11.8126 26.75 15.0001C26.75 18.1876 25.4113 21.0632 23.2744 23.1119L25.0113 24.9244C27.6219 22.4219 29.25 18.9019 29.25 15.0001C29.25 11.0982 27.6219 7.57818 25.0113 5.07568Z" fill="white"/>
</svg>
