<svg width="14" height="15" viewBox="0 0 14 15" fill="none" xmlns="http://www.w3.org/2000/svg">
<path d="M7.87461 6.38184C7.87461 6.86484 7.48261 7.25684 6.99961 7.25684C6.51661 7.25684 6.12461 6.86484 6.12461 6.38184C6.12461 5.89884 6.51661 5.50684 6.99961 5.50684C7.48261 5.50684 7.87461 5.89884 7.87461 6.38184ZM9.91627 5.50684C9.43327 5.50684 9.04127 5.89884 9.04127 6.38184C9.04127 6.86484 9.43327 7.25684 9.91627 7.25684C10.3993 7.25684 10.7913 6.86484 10.7913 6.38184C10.7913 5.89884 10.3993 5.50684 9.91627 5.50684ZM4.08294 5.50684C3.59994 5.50684 3.20794 5.89884 3.20794 6.38184C3.20794 6.86484 3.59994 7.25684 4.08294 7.25684C4.56594 7.25684 4.95794 6.86484 4.95794 6.38184C4.95794 5.89884 4.56594 5.50684 4.08294 5.50684ZM13.9996 2.59017V9.59017C13.9996 10.877 12.9531 11.9235 11.6663 11.9235H10.0026L7.75794 13.7785C7.54736 13.9663 7.27727 14.0608 7.00427 14.0608C6.72661 14.0608 6.44719 13.9628 6.22436 13.7651L4.03744 11.9235H2.33236C1.04552 11.9235 -0.000976562 10.877 -0.000976562 9.59017V2.59017C-0.000393229 1.30334 1.04611 0.256836 2.33294 0.256836H11.6663C12.9531 0.256836 13.9996 1.30334 13.9996 2.59017ZM12.8329 2.59017C12.8329 1.94675 12.3097 1.4235 11.6663 1.4235H2.33294C1.68952 1.4235 1.16627 1.94675 1.16627 2.59017V9.59017C1.16627 10.2336 1.68952 10.7568 2.33294 10.7568H4.25094C4.38802 10.7568 4.52161 10.8053 4.62719 10.8939L6.98852 12.8831L9.42161 10.8904C9.52602 10.8041 9.65727 10.7568 9.79319 10.7568H11.6669C12.3103 10.7568 12.8335 10.2336 12.8335 9.59017L12.8329 2.59017Z" fill="white"/>
</svg>
