<svg width="20" height="20" viewBox="0 0 20 20" fill="none" xmlns="http://www.w3.org/2000/svg">
<g clip-path="url(#clip0_1385_9649)">
<path d="M17.9077 2.07338L17.0916 1.36606C16.1511 0.425548 14.6276 0.425548 13.6871 1.36606C13.6638 1.38937 12.2258 3.26262 12.2258 3.26262C11.3397 4.19535 11.3397 5.66441 12.2258 6.58938L13.1274 7.7242C11.9926 10.297 10.2282 12.0692 7.74089 13.1263L6.60606 12.2169C5.6811 11.323 4.20427 11.323 3.2793 12.2169C3.2793 12.2169 1.40606 13.6548 1.38274 13.6782C0.442232 14.6187 0.442232 16.1421 1.34388 17.0438L2.12116 17.9377C3.01503 18.8315 4.21981 19.3212 5.52564 19.3212C11.4641 19.3212 19.3301 11.4474 19.3301 5.51673C19.3301 4.21867 18.8404 3.00612 17.9077 2.08115V2.07338ZM5.52564 17.7589C4.63954 17.7589 3.8234 17.4324 3.26376 16.865L2.48648 15.9711C2.16779 15.6525 2.15225 15.1317 2.45539 14.7974C2.45539 14.7974 4.31309 13.3673 4.3364 13.3439C4.65509 13.0252 5.21473 13.0252 5.54119 13.3439C5.56451 13.3673 7.12684 14.6187 7.12684 14.6187C7.34448 14.7897 7.63207 14.8363 7.88857 14.7353C11.1065 13.5072 13.415 11.2064 14.7442 7.88743C14.8452 7.63093 14.8064 7.33556 14.6276 7.11015C14.6276 7.11015 13.3762 5.54005 13.3606 5.5245C13.0264 5.19027 13.0264 4.65395 13.3606 4.31972C13.3839 4.2964 14.8141 2.4387 14.8141 2.4387C15.1484 2.13556 15.6691 2.14334 16.0267 2.50088L16.8428 3.20821C17.4413 3.80671 17.7756 4.62286 17.7756 5.50896C17.7756 10.9188 10.1815 17.7589 5.52564 17.7589Z" fill="white"/>
</g>
<defs>
<clipPath id="clip0_1385_9649">
<rect width="18.6547" height="18.6547" fill="white" transform="translate(0.675659 0.65918)"/>
</clipPath>
</defs>
</svg>
