<svg width="18" height="18" viewBox="0 0 18 18" fill="none" xmlns="http://www.w3.org/2000/svg">
<g clip-path="url(#clip0_2135_9199)">
<path d="M6.20605 14.2283L9.00979 7.91992" stroke="white" stroke-width="1.34346" stroke-linecap="round" stroke-linejoin="round"/>
<path d="M8.09834 10.0225C8.40465 10.9077 9.10068 11.4243 9.88572 11.4243C11.3374 11.4243 12.5142 10.3351 12.5142 8.6206C12.5148 8.10879 12.4033 7.60307 12.1876 7.13897C11.9718 6.67487 11.657 6.26366 11.2653 5.93424C10.8736 5.60483 10.4145 5.3652 9.92026 5.23221C9.42603 5.09921 8.90868 5.07608 8.40456 5.16443C7.90043 5.25278 7.42178 5.45048 7.00224 5.74361C6.5827 6.03675 6.23245 6.41822 5.97612 6.86121C5.71979 7.3042 5.56359 7.79795 5.51851 8.30777C5.47342 8.81759 5.54055 9.33109 5.71516 9.81219" stroke="white" stroke-width="1.34346" stroke-linecap="round" stroke-linejoin="round"/>
<path d="M2.7002 8.62042C2.7002 9.44886 2.86337 10.2692 3.18039 11.0345C3.49742 11.7999 3.9621 12.4954 4.54789 13.0811C5.13368 13.6669 5.82911 14.1316 6.59448 14.4486C7.35985 14.7657 8.18017 14.9288 9.00861 14.9288C9.83704 14.9288 10.6574 14.7657 11.4227 14.4486C12.1881 14.1316 12.8835 13.6669 13.4693 13.0811C14.0551 12.4954 14.5198 11.7999 14.8368 11.0345C15.1538 10.2692 15.317 9.44886 15.317 8.62042C15.317 7.79199 15.1538 6.97167 14.8368 6.2063C14.5198 5.44093 14.0551 4.74549 13.4693 4.1597C12.8835 3.57391 12.1881 3.10924 11.4227 2.79221C10.6574 2.47518 9.83704 2.31201 9.00861 2.31201C8.18017 2.31201 7.35985 2.47518 6.59448 2.79221C5.82911 3.10924 5.13368 3.57391 4.54789 4.1597C3.9621 4.74549 3.49742 5.44093 3.18039 6.2063C2.86337 6.97167 2.7002 7.79199 2.7002 8.62042Z" stroke="white" stroke-width="1.34346" stroke-linecap="round" stroke-linejoin="round"/>
</g>
<defs>
<clipPath id="clip0_2135_9199">
<rect width="16.8224" height="16.8224" fill="white" transform="translate(0.597656 0.209473)"/>
</clipPath>
</defs>
</svg>
