<svg width="14" height="17" viewBox="0 0 14 17" fill="none" xmlns="http://www.w3.org/2000/svg">
<path d="M11.6627 5.34088L5.30267 0.674215C4.80593 0.310472 4.21815 0.0914111 3.60451 0.0413237C2.99087 -0.00876367 2.37535 0.112079 1.8262 0.390453C1.27704 0.668827 0.815718 1.09385 0.493372 1.61841C0.171027 2.14296 0.000257343 2.74654 0 3.36221V12.6955C0.000109848 13.3115 0.170889 13.9154 0.493383 14.4402C0.815878 14.965 1.27748 15.3901 1.82695 15.6685C2.37642 15.9468 2.99227 16.0675 3.60616 16.0171C4.22006 15.9667 4.80797 15.7472 5.30467 15.3829L11.6647 10.7162C12.0868 10.4066 12.4302 10.0019 12.6668 9.53492C12.9034 9.06792 13.0268 8.55175 13.0268 8.02821C13.0268 7.50468 12.9034 6.98851 12.6668 6.52151C12.4302 6.05451 12.0868 5.64982 11.6647 5.34021L11.6627 5.34088ZM10.8733 9.64088L4.51333 14.3075C4.21534 14.5253 3.86291 14.6564 3.49505 14.6862C3.12718 14.716 2.75824 14.6435 2.42904 14.4766C2.09985 14.3098 1.82326 14.0551 1.62987 13.7407C1.43648 13.4263 1.33385 13.0646 1.33333 12.6955V3.36221C1.32963 2.99245 1.43033 2.62914 1.62385 2.31403C1.81737 1.99892 2.09587 1.74481 2.42733 1.58088C2.70926 1.43748 3.02103 1.36256 3.33733 1.36221C3.76126 1.36383 4.17348 1.50147 4.51333 1.75488L10.8733 6.42155C11.1263 6.60735 11.332 6.85008 11.4738 7.13013C11.6156 7.41017 11.6895 7.71966 11.6895 8.03355C11.6895 8.34744 11.6156 8.65693 11.4738 8.93697C11.332 9.21701 11.1263 9.45975 10.8733 9.64555V9.64088Z" fill="#F1F1F1" fill-opacity="0.8"/>
</svg>
