<svg width="24" height="24" viewBox="0 0 24 24" fill="none" xmlns="http://www.w3.org/2000/svg">
<g clip-path="url(#clip0_2128_9143)">
<path d="M10.9998 6.00011C10.9998 6.26532 10.8944 6.51968 10.7069 6.70721C10.5194 6.89475 10.265 7.00011 9.99979 7.00011C9.73457 7.00011 9.48022 7.10546 9.29268 7.293C9.10514 7.48054 8.99979 7.73489 8.99979 8.00011C8.99979 8.26532 8.89443 8.51968 8.70689 8.70721C8.51936 8.89475 8.265 9.00011 7.99979 9.00011C7.73457 9.00011 7.48022 8.89475 7.29268 8.70721C7.10514 8.51968 6.99979 8.26532 6.99979 8.00011C6.99979 7.20446 7.31586 6.4414 7.87847 5.87879C8.44108 5.31618 9.20414 5.00011 9.99979 5.00011C10.265 5.00011 10.5194 5.10546 10.7069 5.293C10.8944 5.48054 10.9998 5.73489 10.9998 6.00011ZM13.9998 7.00011C13.7346 7.00011 13.4802 7.10546 13.2927 7.293C13.1051 7.48054 12.9998 7.73489 12.9998 8.00011C12.9998 8.26532 13.1051 8.51968 13.2927 8.70721C13.4802 8.89475 13.7346 9.00011 13.9998 9.00011C14.265 9.00011 14.5194 9.10546 14.7069 9.293C14.8944 9.48054 14.9998 9.73489 14.9998 10.0001C14.9998 10.2653 15.1051 10.5197 15.2927 10.7072C15.4802 10.8948 15.7346 11.0001 15.9998 11.0001C16.265 11.0001 16.5194 10.8948 16.7069 10.7072C16.8944 10.5197 16.9998 10.2653 16.9998 10.0001C16.9998 9.20446 16.6837 8.4414 16.1211 7.87879C15.5585 7.31618 14.7954 7.00011 13.9998 7.00011ZM21.9228 13.4861L20.6228 19.9861C20.3928 21.1173 19.7794 22.1344 18.8863 22.8657C17.9932 23.597 16.8751 23.9977 15.7208 24.0001H8.27879C7.12412 23.997 6.00592 23.5954 5.11314 22.8631C4.22036 22.1309 3.60774 21.1129 3.37879 19.9811L2.07879 13.4811C1.46411 13.1347 0.951805 12.6321 0.593662 12.0242C0.235519 11.4163 0.0442398 10.7246 0.0391661 10.0191C0.0340925 9.31355 0.215404 8.61918 0.564768 8.00619C0.914131 7.39319 1.41916 6.88331 2.02879 6.52811C2.13136 5.67442 2.50581 4.87638 3.09682 4.25187C3.68783 3.62737 4.46405 3.20954 5.31079 3.06011C5.61897 2.36316 6.14886 1.78762 6.81802 1.42302C7.48718 1.05842 8.25808 0.925207 9.01079 1.04411C9.40766 0.648143 9.89344 0.352791 10.4276 0.182674C10.9618 0.0125581 11.5289 -0.0273926 12.0817 0.0661529C12.6344 0.159698 13.1568 0.384029 13.6053 0.720443C14.0538 1.05686 14.4153 1.4956 14.6598 2.00011C15.5726 2.04319 16.4318 2.44371 17.0518 3.11511C17.6017 2.98263 18.1733 2.96794 18.7293 3.07201C19.2852 3.17608 19.8129 3.39655 20.2776 3.71896C20.7423 4.04137 21.1336 4.45841 21.4258 4.94272C21.7179 5.42703 21.9043 5.96766 21.9728 6.52911C22.5834 6.88404 23.0893 7.39405 23.4393 8.00746C23.7893 8.62086 23.971 9.31589 23.9659 10.0221C23.9608 10.7283 23.7692 11.4207 23.4104 12.029C23.0516 12.6373 22.5384 13.14 21.9228 13.4861ZM8.48379 22.0001L7.99979 16.0621C8.00549 15.795 7.95811 15.5293 7.86039 15.2807C7.76267 15.032 7.61655 14.8051 7.43052 14.6133C7.24448 14.4215 7.02222 14.2686 6.77663 14.1633C6.53103 14.058 6.26698 14.0026 5.99979 14.0001H4.21979L5.33679 19.5881C5.48382 20.3013 5.88285 20.9376 6.46079 21.3806C7.03873 21.8235 7.75691 22.0435 8.48379 22.0001ZM13.4558 22.0001L13.9998 15.9781C13.9969 15.4477 13.7834 14.9401 13.4062 14.5671C13.0291 14.1941 12.5192 13.9862 11.9888 13.9891C11.4584 13.992 10.9508 14.2055 10.5778 14.5827C10.2048 14.9598 9.99687 15.4697 9.99979 16.0001L10.4868 22.0001H13.4558ZM19.7798 14.0001H17.9998C17.4694 14.0001 16.9606 14.2108 16.5856 14.5859C16.2105 14.961 15.9998 15.4697 15.9998 16.0001L15.4628 22.0001C16.198 22.0548 16.9281 21.8403 17.5168 21.3965C18.1056 20.9527 18.5129 20.31 18.6628 19.5881L19.7798 14.0001ZM21.9998 10.0001C21.9973 9.5883 21.8677 9.18731 21.6288 8.85191C21.3898 8.5165 21.0532 8.26303 20.6648 8.12611C20.4703 8.05695 20.3019 7.92927 20.1828 7.76061C20.0638 7.59194 19.9998 7.39056 19.9998 7.18411C20.0271 6.83217 19.9614 6.47922 19.8092 6.16071C19.657 5.8422 19.4237 5.56934 19.1327 5.36953C18.8417 5.16971 18.5033 5.04998 18.1513 5.02235C17.7994 4.99472 17.4464 5.06016 17.1278 5.21211C16.8963 5.32543 16.63 5.34502 16.3845 5.26676C16.1389 5.18851 15.933 5.01847 15.8098 4.79211C15.6827 4.55463 15.4939 4.35578 15.2634 4.21642C15.0329 4.07706 14.7691 4.00234 14.4998 4.00011C14.3502 4.06241 14.189 4.09182 14.0271 4.08635C13.8651 4.08087 13.7063 4.04063 13.5612 3.96836C13.4162 3.89608 13.2884 3.79347 13.1866 3.66747C13.0847 3.54148 13.0111 3.39504 12.9708 3.23811C12.9147 2.94275 12.7713 2.67106 12.5589 2.45825C12.3466 2.24544 12.0752 2.10134 11.78 2.04465C11.4847 1.98795 11.1793 2.02127 10.9032 2.14029C10.6272 2.25931 10.3932 2.45852 10.2318 2.71211C9.78779 3.43011 9.12179 3.10011 8.49979 3.00011C8.15399 3.00004 7.81879 3.11944 7.55092 3.33812C7.28304 3.55679 7.09895 3.8613 7.02979 4.20011C6.98143 4.44229 6.84516 4.65802 6.64723 4.80572C6.4493 4.95343 6.20372 5.02267 5.95779 5.00011C5.43467 5.0111 4.93668 5.22665 4.57065 5.60054C4.20461 5.97443 3.99967 6.47687 3.99979 7.00011C4.03319 7.2354 3.98555 7.47506 3.8647 7.6797C3.74384 7.88433 3.55697 8.04176 3.33479 8.12611C2.89798 8.28876 2.53171 8.59887 2.29923 9.00286C2.06676 9.40686 1.98269 9.87936 2.06155 10.3387C2.1404 10.7981 2.37724 11.2155 2.73113 11.5189C3.08502 11.8222 3.53374 11.9924 3.99979 12.0001H5.99979C6.56968 12.0019 7.13251 12.1263 7.65013 12.3648C8.16774 12.6032 8.62803 12.9502 8.99979 13.3821C9.37411 12.9562 9.83483 12.6148 10.3513 12.3808C10.8678 12.1467 11.4282 12.0253 11.9952 12.0247C12.5622 12.024 13.1229 12.1441 13.6399 12.377C14.157 12.6098 14.6185 12.9501 14.9938 13.3751C15.3682 12.9453 15.8301 12.6004 16.3484 12.3633C16.8668 12.1262 17.4298 12.0024 17.9998 12.0001H19.9998C20.5302 12.0001 21.0389 11.7894 21.414 11.4143C21.7891 11.0392 21.9998 10.5305 21.9998 10.0001Z" fill="white"/>
</g>
<defs>
<clipPath id="clip0_2128_9143">
<rect width="24" height="24" fill="white"/>
</clipPath>
</defs>
</svg>
