<svg width="25" height="24" viewBox="0 0 25 24" fill="none" xmlns="http://www.w3.org/2000/svg">
<g clip-path="url(#clip0_2128_9145)">
<path d="M19.5 3H5.5C4.17441 3.00159 2.90356 3.52888 1.96622 4.46622C1.02888 5.40356 0.501588 6.67441 0.5 8L0.5 14C0.501588 15.3256 1.02888 16.5964 1.96622 17.5338C2.90356 18.4711 4.17441 18.9984 5.5 19H11.5V20H8.5C8.23478 20 7.98043 20.1054 7.79289 20.2929C7.60536 20.4804 7.5 20.7348 7.5 21C7.5 21.2652 7.60536 21.5196 7.79289 21.7071C7.98043 21.8946 8.23478 22 8.5 22H16.5C16.7652 22 17.0196 21.8946 17.2071 21.7071C17.3946 21.5196 17.5 21.2652 17.5 21C17.5 20.7348 17.3946 20.4804 17.2071 20.2929C17.0196 20.1054 16.7652 20 16.5 20H13.5V19H19.5C20.8256 18.9984 22.0964 18.4711 23.0338 17.5338C23.9711 16.5964 24.4984 15.3256 24.5 14V8C24.4984 6.67441 23.9711 5.40356 23.0338 4.46622C22.0964 3.52888 20.8256 3.00159 19.5 3ZM22.5 14C22.5 14.7956 22.1839 15.5587 21.6213 16.1213C21.0587 16.6839 20.2956 17 19.5 17H5.5C4.70435 17 3.94129 16.6839 3.37868 16.1213C2.81607 15.5587 2.5 14.7956 2.5 14V8C2.5 7.20435 2.81607 6.44129 3.37868 5.87868C3.94129 5.31607 4.70435 5 5.5 5H19.5C20.2956 5 21.0587 5.31607 21.6213 5.87868C22.1839 6.44129 22.5 7.20435 22.5 8V14Z" fill="white"/>
</g>
<defs>
<clipPath id="clip0_2128_9145">
<rect width="24" height="24" fill="white" transform="translate(0.5)"/>
</clipPath>
</defs>
</svg>
