<svg width="50" height="50" viewBox="0 0 50 50" fill="none" xmlns="http://www.w3.org/2000/svg">
<g clip-path="url(#clip0_1392_10562)">
<path d="M25 25C27.4723 25 29.889 24.2669 31.9446 22.8934C34.0002 21.5199 35.6024 19.5676 36.5485 17.2835C37.4946 14.9995 37.7421 12.4861 37.2598 10.0614C36.7775 7.63661 35.587 5.40933 33.8388 3.66117C32.0907 1.91301 29.8634 0.722505 27.4386 0.24019C25.0139 -0.242126 22.5005 0.00541608 20.2165 0.951511C17.9324 1.89761 15.9801 3.49976 14.6066 5.55538C13.2331 7.61099 12.5 10.0277 12.5 12.5C12.5033 15.8142 13.8213 18.9917 16.1648 21.3352C18.5083 23.6787 21.6858 24.9967 25 25ZM25 4.16667C26.6482 4.16667 28.2593 4.65541 29.6298 5.57109C31.0002 6.48677 32.0683 7.78826 32.699 9.31098C33.3297 10.8337 33.4948 12.5092 33.1732 14.1258C32.8517 15.7423 32.058 17.2271 30.8926 18.3926C29.7271 19.558 28.2423 20.3517 26.6258 20.6732C25.0092 20.9948 23.3337 20.8297 21.811 20.199C20.2883 19.5683 18.9868 18.5002 18.0711 17.1298C17.1554 15.7593 16.6667 14.1482 16.6667 12.5C16.6667 10.2899 17.5446 8.17025 19.1074 6.60745C20.6702 5.04465 22.7899 4.16667 25 4.16667Z" fill="white"/>
<path d="M25 29.1666C20.0289 29.1721 15.2629 31.1494 11.7478 34.6645C8.23273 38.1796 6.25551 42.9455 6.25 47.9166C6.25 48.4692 6.46949 48.9991 6.86019 49.3898C7.25089 49.7805 7.7808 50 8.33333 50C8.88587 50 9.41577 49.7805 9.80647 49.3898C10.1972 48.9991 10.4167 48.4692 10.4167 47.9166C10.4167 44.0489 11.9531 40.3396 14.688 37.6047C17.4229 34.8697 21.1323 33.3333 25 33.3333C28.8677 33.3333 32.5771 34.8697 35.312 37.6047C38.0469 40.3396 39.5833 44.0489 39.5833 47.9166C39.5833 48.4692 39.8028 48.9991 40.1935 49.3898C40.5842 49.7805 41.1141 50 41.6667 50C42.2192 50 42.7491 49.7805 43.1398 49.3898C43.5305 48.9991 43.75 48.4692 43.75 47.9166C43.7445 42.9455 41.7673 38.1796 38.2522 34.6645C34.737 31.1494 29.9711 29.1721 25 29.1666Z" fill="white"/>
</g>
<defs>
<clipPath id="clip0_1392_10562">
<rect width="50" height="50" fill="white"/>
</clipPath>
</defs>
</svg>
